<?xml version="1.0" encoding="UTF-8"?>
<svg width="64px" height="64px" viewBox="0 0 64 64" version="1.1" xmlns="http://www.w3.org/2000/svg" xmlns:xlink="http://www.w3.org/1999/xlink">
    <!-- Generator: Sketch 43.2 (39069) - http://www.bohemiancoding.com/sketch -->
    <title>ico-dentelle</title>
    <desc>Created with Sketch.</desc>
    <defs></defs>
    <g id="Page-1" stroke="none" stroke-width="1" fill="none" fill-rule="evenodd">
        <g id="noun_544407_cc">
            <g id="ico-dentelle" transform="translate(1.000000, 0.000000)">
                <path d="M22,22 L18.84,15.228 C17.051,11.394 19.849,7 24.08,7 L24.638,7 C27.22,7 29.489,8.712 30.198,11.194 L31,14 L31.802,11.194 C32.511,8.712 34.78,7 37.362,7 L37.362,7 C41.728,7 44.519,11.652 42.464,15.504 L39,22 L22,22 Z" id="Shape" stroke="#FFFFFF" stroke-width="2" stroke-linejoin="round"></path>
                <path d="M24,0 L24,7" id="Shape" stroke="#FFFFFF" stroke-width="2" stroke-linejoin="round"></path>
                <path d="M38,0 L38,7" id="Shape" stroke="#FFFFFF" stroke-width="2" stroke-linejoin="round"></path>
                <path d="M62,61 C59.413,61 59.413,63 56.827,63 C54.241,63 54.24,61 51.654,61 C49.069,61 49.069,63 46.484,63 C43.901,63 43.901,61 41.319,61 C38.735,61 38.735,63 36.151,63 C33.568,63 33.568,61 30.984,61 C28.401,61 28.401,63 25.817,63 C23.234,63 23.234,61 20.65,61 C18.068,61 18.068,63 15.486,63 C12.905,63 12.905,61 10.324,61 C7.742,61 7.742,63 5.159,63 C2.58,63 2.58,61 0,61 L22,26 L39,26 L62,61 Z" id="Shape" stroke="#FFFFFF" stroke-width="2" stroke-linejoin="round"></path>
                <rect id="Rectangle-path" stroke="#FFFFFF" stroke-width="2" stroke-linejoin="round" x="22" y="22" width="17" height="4"></rect>
                <path d="M9,47 C11.749,47 11.749,49 14.498,49 C17.247,49 17.247,47 19.996,47 C22.745,47 22.745,49 25.494,49 C28.244,49 28.244,47 30.993,47 C33.741,47 33.741,49 36.489,49 C39.24,49 39.24,47 41.99,47 C44.742,47 44.742,49 47.495,49 C50.247,49 50.247,47 53,47" id="Shape" stroke="#FFFFFF" stroke-width="2" stroke-linejoin="round"></path>
                <circle id="Oval" fill="#FFFFFF" fill-rule="nonzero" cx="31" cy="57" r="1"></circle>
                <circle id="Oval" fill="#FFFFFF" fill-rule="nonzero" cx="36" cy="57" r="1"></circle>
                <circle id="Oval" fill="#FFFFFF" fill-rule="nonzero" cx="41" cy="57" r="1"></circle>
                <circle id="Oval" fill="#FFFFFF" fill-rule="nonzero" cx="46" cy="57" r="1"></circle>
                <circle id="Oval" fill="#FFFFFF" fill-rule="nonzero" cx="51" cy="57" r="1"></circle>
                <circle id="Oval" fill="#FFFFFF" fill-rule="nonzero" cx="56" cy="57" r="1"></circle>
                <circle id="Oval" fill="#FFFFFF" fill-rule="nonzero" cx="6" cy="57" r="1"></circle>
                <circle id="Oval" fill="#FFFFFF" fill-rule="nonzero" cx="11" cy="57" r="1"></circle>
                <circle id="Oval" fill="#FFFFFF" fill-rule="nonzero" cx="16" cy="57" r="1"></circle>
                <circle id="Oval" fill="#FFFFFF" fill-rule="nonzero" cx="21" cy="57" r="1"></circle>
                <circle id="Oval" fill="#FFFFFF" fill-rule="nonzero" cx="26" cy="57" r="1"></circle>
                <circle id="Oval" fill="#FFFFFF" fill-rule="nonzero" cx="31" cy="43" r="1"></circle>
                <circle id="Oval" fill="#FFFFFF" fill-rule="nonzero" cx="36" cy="43" r="1"></circle>
                <circle id="Oval" fill="#FFFFFF" fill-rule="nonzero" cx="41" cy="43" r="1"></circle>
                <circle id="Oval" fill="#FFFFFF" fill-rule="nonzero" cx="46" cy="43" r="1"></circle>
                <circle id="Oval" fill="#FFFFFF" fill-rule="nonzero" cx="16" cy="43" r="1"></circle>
                <circle id="Oval" fill="#FFFFFF" fill-rule="nonzero" cx="21" cy="43" r="1"></circle>
                <circle id="Oval" fill="#FFFFFF" fill-rule="nonzero" cx="26" cy="43" r="1"></circle>
            </g>
        </g>
    </g>
</svg>