<?xml version="1.0" encoding="UTF-8"?>
<svg width="56px" height="60px" viewBox="0 0 56 60" version="1.1" xmlns="http://www.w3.org/2000/svg" xmlns:xlink="http://www.w3.org/1999/xlink">
    <!-- Generator: Sketch 43.2 (39069) - http://www.bohemiancoding.com/sketch -->
    <title>ico-patwork</title>
    <desc>Created with Sketch.</desc>
    <defs></defs>
    <g id="Page-1" stroke="none" stroke-width="1" fill="none" fill-rule="evenodd">
        <g id="noun_574505_cc" fill-rule="nonzero" fill="#FFFFFF">
            <g id="Group">
                <g id="ico-patwork">
                    <g>
                        <path d="M44.0001,2 C38.4861,2 34.0001,6.486 34.0001,12 L34.0001,48 C34.0001,53.514 38.4861,58 44.0001,58 C49.5141,58 54.0001,53.514 54.0001,48 L54.0001,12 C54.0001,6.486 49.5141,2 44.0001,2 M44.0001,60 C37.3831,60 32.0001,54.617 32.0001,48 L32.0001,12 C32.0001,5.383 37.3831,0 44.0001,0 C50.6171,0 56.0001,5.383 56.0001,12 L56.0001,48 C56.0001,54.617 50.6171,60 44.0001,60" id="Shape"></path>
                        <path d="M2.0001,58 L37.3731,58 C34.1371,55.849 32.0001,52.169 32.0001,48 L32.0001,13 L2.0001,13 L2.0001,58 Z M44.0001,60 L0.0001,60 L0.0001,11 L34.0001,11 L34.0001,48 C34.0001,53.514 38.4861,58 44.0001,58 L44.0001,60 Z" id="Shape"></path>
                        <path d="M44.0001,38 C38.4861,38 34.0001,42.486 34.0001,48 C34.0001,53.514 38.4861,58 44.0001,58 C49.5141,58 54.0001,53.514 54.0001,48 C54.0001,42.486 49.5141,38 44.0001,38 M44.0001,60 C37.3831,60 32.0001,54.617 32.0001,48 C32.0001,41.383 37.3831,36 44.0001,36 C50.6171,36 56.0001,41.383 56.0001,48 C56.0001,54.617 50.6171,60 44.0001,60" id="Shape"></path>
                        <path d="M44.0001,43 C41.2431,43 39.0001,45.243 39.0001,48 C39.0001,50.757 41.2431,53 44.0001,53 C46.7571,53 49.0001,50.757 49.0001,48 C49.0001,45.243 46.7571,43 44.0001,43 M44.0001,55 C40.1411,55 37.0001,51.859 37.0001,48 C37.0001,44.141 40.1411,41 44.0001,41 C47.8591,41 51.0001,44.141 51.0001,48 C51.0001,51.859 47.8591,55 44.0001,55" id="Shape"></path>
                        <polygon id="Shape" points="1.504 26.8643 0.496 25.1353 24.496 11.1353 25.504 12.8643"></polygon>
                        <polygon id="Shape" points="1.5108 53.8594 0.4898 52.1404 32.4898 33.1404 33.5108 34.8594"></polygon>
                        <polygon id="Shape" points="32.7579 34.9697 0.7579 26.9697 1.2419 25.0307 33.2419 33.0307"></polygon>
                        <polygon id="Shape" points="10.5196 28.8545 9.4806 27.1455 32.4806 13.1455 33.5196 14.8545"></polygon>
                        <polygon id="Shape" points="18.5147 30.8574 17.4857 29.1424 32.4857 20.1424 33.5147 21.8574"></polygon>
                        <polygon id="Shape" points="26.4962 32.8682 25.5042 31.1322 32.5042 27.1322 33.4962 28.8682"></polygon>
                        <polygon id="Shape" points="24.7198 39.96 0.7198 32.96 1.2808 31.04 25.2808 38.04"></polygon>
                        <polygon id="Shape" points="16.7022 43.9541 0.7022 38.9541 1.2982 37.0461 17.2982 42.0461"></polygon>
                        <polygon id="Shape" points="8.6485 48.9365 0.6485 45.9365 1.3515 44.0635 9.3515 47.0635"></polygon>
                        <polygon id="Shape" points="2.502 59.8652 1.498 58.1352 32.498 40.1352 33.502 41.8652"></polygon>
                        <polygon id="Shape" points="14.501 59.8652 13.499 58.1352 32.499 47.1352 33.501 48.8652"></polygon>
                        <polygon id="Shape" points="1.5245 20.8516 0.4755 19.1486 13.4755 11.1486 14.5245 12.8516"></polygon>
                    </g>
                </g>
            </g>
        </g>
    </g>
</svg>