<?xml version="1.0" encoding="UTF-8"?>
<svg width="60px" height="60px" viewBox="0 0 60 60" version="1.1" xmlns="http://www.w3.org/2000/svg" xmlns:xlink="http://www.w3.org/1999/xlink">
    <!-- Generator: Sketch 43.2 (39069) - http://www.bohemiancoding.com/sketch -->
    <title>ico-tricot</title>
    <desc>Created with Sketch.</desc>
    <defs></defs>
    <g id="Page-1" stroke="none" stroke-width="1" fill="none" fill-rule="evenodd">
        <g id="noun_574506_cc-(1)" fill-rule="nonzero" fill="#FFFFFF">
            <g id="Group">
                <g id="ico-tricot">
                    <g>
                        <path d="M30.0001,2 C19.5231,2 11.0001,10.523 11.0001,21 C11.0001,31.477 19.5231,40 30.0001,40 C40.4771,40 49.0001,31.477 49.0001,21 C49.0001,10.523 40.4771,2 30.0001,2 M30.0001,42 C18.4211,42 9.0001,32.579 9.0001,21 C9.0001,9.421 18.4211,0 30.0001,0 C41.5791,0 51.0001,9.421 51.0001,21 C51.0001,32.579 41.5791,42 30.0001,42" id="Shape"></path>
                        <path d="M7.0001,35 C4.2431,35 2.0001,37.243 2.0001,40 C2.0001,42.757 4.2431,45 7.0001,45 C9.7571,45 12.0001,42.757 12.0001,40 C12.0001,37.243 9.7571,35 7.0001,35 M7.0001,47 C3.1411,47 0.0001,43.859 0.0001,40 C0.0001,36.141 3.1411,33 7.0001,33 C10.8591,33 14.0001,36.141 14.0001,40 C14.0001,43.859 10.8591,47 7.0001,47" id="Shape"></path>
                        <path d="M59.0001,60 C58.8911,60 58.7801,59.982 58.6721,59.944 L12.6721,43.944 C12.1491,43.763 11.8741,43.193 12.0561,42.672 C12.2371,42.15 12.8111,41.875 13.3281,42.056 L59.3281,58.056 C59.8511,58.237 60.1261,58.807 59.9441,59.328 C59.8011,59.741 59.4141,60 59.0001,60" id="Shape"></path>
                        <path d="M5.0001,42 C4.4471,42 4.0001,41.553 4.0001,41 C4.0001,38.794 5.7941,37 8.0001,37 C8.5531,37 9.0001,37.447 9.0001,38 C9.0001,38.553 8.5531,39 8.0001,39 C6.8971,39 6.0001,39.897 6.0001,41 C6.0001,41.553 5.5531,42 5.0001,42" id="Shape"></path>
                        <path d="M53.0001,35 C50.2431,35 48.0001,37.243 48.0001,40 C48.0001,42.757 50.2431,45 53.0001,45 C55.7571,45 58.0001,42.757 58.0001,40 C58.0001,37.243 55.7571,35 53.0001,35 M53.0001,47 C49.1411,47 46.0001,43.859 46.0001,40 C46.0001,36.141 49.1411,33 53.0001,33 C56.8591,33 60.0001,36.141 60.0001,40 C60.0001,43.859 56.8591,47 53.0001,47" id="Shape"></path>
                        <path d="M51.0001,42 C50.4471,42 50.0001,41.553 50.0001,41 C50.0001,38.794 51.7941,37 54.0001,37 C54.5531,37 55.0001,37.447 55.0001,38 C55.0001,38.553 54.5531,39 54.0001,39 C52.8971,39 52.0001,39.897 52.0001,41 C52.0001,41.553 51.5531,42 51.0001,42" id="Shape"></path>
                        <path d="M1.0001,60 C0.5861,60 0.1991,59.741 0.0561,59.328 C-0.1259,58.807 0.1491,58.237 0.6721,58.056 L46.6721,42.056 C47.1901,41.874 47.7631,42.15 47.9441,42.672 C48.1261,43.193 47.8511,43.763 47.3281,43.944 L1.3281,59.944 C1.2201,59.982 1.1091,60 1.0001,60" id="Shape"></path>
                        <polygon id="Shape" points="15.8594 14.8535 14.8184 13.1465 34.4794 1.1465 35.5204 2.8535"></polygon>
                        <polygon id="Shape" points="19.459 38.8887 18.541 37.1117 49.541 21.1117 50.459 22.8887"></polygon>
                        <polygon id="Shape" points="49.7696 22.9727 11.7696 13.9727 12.2306 12.0277 50.2306 21.0277"></polygon>
                        <polygon id="Shape" points="24.543 16.8398 23.457 15.1598 40.457 4.1598 41.543 5.8398"></polygon>
                        <polygon id="Shape" points="32.5255 18.8506 31.4745 17.1496 45.4745 8.5096 46.5255 10.2106"></polygon>
                        <polygon id="Shape" points="39.6885 20.3164 38.7175 18.5684 48.5145 13.1264 49.4855 14.8744"></polygon>
                        <polygon id="Shape" points="41.212 26.9668 10.746 18.9668 11.254 17.0328 41.72 25.0328"></polygon>
                        <polygon id="Shape" points="33.6133 31.2441 9.7343 23.3381 10.3633 21.4391 34.2423 29.3461"></polygon>
                        <polygon id="Shape" points="25.6641 34.9414 11.6641 29.9414 12.3361 28.0584 26.3361 33.0584"></polygon>
                        <polygon id="Shape" points="25.6221 41.3076 24.7271 39.5186 47.9801 27.8916 48.8751 29.6806"></polygon>
                    </g>
                </g>
            </g>
        </g>
    </g>
</svg>