<?xml version="1.0" encoding="UTF-8"?>
<svg width="59px" height="60px" viewBox="0 0 59 60" version="1.1" xmlns="http://www.w3.org/2000/svg" xmlns:xlink="http://www.w3.org/1999/xlink">
    <!-- Generator: Sketch 43.2 (39069) - http://www.bohemiancoding.com/sketch -->
    <title>ico-couture</title>
    <desc>Created with Sketch.</desc>
    <defs></defs>
    <g id="Page-1" stroke="none" stroke-width="1" fill="none" fill-rule="evenodd">
        <g id="noun_574513_cc" fill-rule="nonzero" fill="#FFFFFF">
            <g id="Group">
                <g id="ico-couture">
                    <g>
                        <path d="M47.8848,24.6221 L56.0318,25.1651 C56.0628,25.1711 56.0888,25.1561 56.1108,25.1351 L56.7808,24.4631 L56.7808,24.3221 L35.4888,3.0291 L35.3478,3.0301 L34.6738,3.7031 L35.1908,11.9281 L47.8848,24.6221 Z M56.0388,27.1661 C55.9908,27.1661 55.9448,27.1641 55.8978,27.1611 L47.0018,26.5671 L33.2428,12.8091 L32.6498,3.9131 C32.6098,3.3111 32.8308,2.7191 33.2578,2.2901 L33.9338,1.6141 C34.3298,1.2191 34.8578,1.0001 35.4178,1.0001 L35.4198,1.0001 C35.9808,1.0001 36.5068,1.2191 36.9038,1.6161 L58.1958,22.9081 C58.5928,23.3051 58.8108,23.8331 58.8108,24.3941 C58.8108,24.9551 58.5918,25.4811 58.1948,25.8781 L57.5238,26.5511 C57.1248,26.9461 56.5918,27.1661 56.0388,27.1661 L56.0388,27.1661 Z" id="Shape"></path>
                        <path d="M2.7725,35.6445 C2.7465,35.6445 2.7205,35.6555 2.7005,35.6755 L2.0305,36.3475 L2.0295,36.4885 L23.3225,57.7815 L23.4625,57.7805 L24.1365,57.1075 L23.6205,48.8825 L10.9255,36.1885 L2.7795,35.6455 C2.7775,35.6455 2.7745,35.6445 2.7725,35.6445 M23.3925,59.8105 C22.8325,59.8105 22.3045,59.5915 21.9085,59.1955 L0.6155,37.9025 C0.2185,37.5065 0.0005,36.9805 0.0005,36.4195 C0.0005,35.8585 0.2175,35.3305 0.6155,34.9335 L1.2875,34.2595 C1.7195,33.8315 2.3175,33.6125 2.9135,33.6495 L11.8085,34.2435 L25.5675,48.0015 L26.1615,56.8985 C26.2025,57.4995 25.9795,58.0915 25.5525,58.5205 L24.8765,59.1965 C24.4805,59.5925 23.9065,59.8055 23.3925,59.8105" id="Shape"></path>
                        <polygon id="Shape" points="41.8536 21.167 28.6246 18.762 28.9826 16.795 42.2106 19.2"></polygon>
                        <polygon id="Shape" points="44.5889 28.3809 29.5889 24.9759 30.0319 23.0249 45.0319 26.4299"></polygon>
                        <polygon id="Shape" points="34.461 39.1562 15.455 31.9342 16.166 30.0652 35.172 37.2872"></polygon>
                        <polygon id="Shape" points="30.2842 43.377 11.4872 36.946 12.1342 35.054 30.9302 41.484"></polygon>
                        <path d="M8.2696,6.9883 L8.2796,6.9883 L8.2696,6.9883 Z M11.8046,6.5293 C10.7326,6.5293 9.7286,6.9433 8.9766,7.6953 C8.2246,8.4473 7.8106,9.4513 7.8106,10.5233 C7.8106,11.5953 8.2246,12.5993 8.9766,13.3513 L41.7546,40.4743 L14.5696,7.6263 C13.8806,6.9433 12.8766,6.5293 11.8046,6.5293 L11.8046,6.5293 Z M49.2816,49.0003 C49.0556,49.0003 48.8296,48.9243 48.6436,48.7703 L7.6316,14.8293 C6.4326,13.6363 5.8106,12.1303 5.8106,10.5233 C5.8106,8.9173 6.4326,7.4103 7.5626,6.2813 C8.6916,5.1513 10.1986,4.5293 11.8046,4.5293 C13.4116,4.5293 14.9176,5.1513 16.0466,6.2813 L50.0516,47.3623 C50.3806,47.7593 50.3536,48.3423 49.9886,48.7073 C49.7936,48.9013 49.5386,49.0003 49.2816,49.0003 L49.2816,49.0003 Z" id="Shape"></path>
                        <path d="M14.6329,14.3516 C14.3769,14.3516 14.1209,14.2536 13.9259,14.0586 L11.0979,11.2306 C10.7069,10.8396 10.7069,10.2066 11.0979,9.8166 C11.4879,9.4256 12.1209,9.4256 12.5119,9.8166 L15.3399,12.6446 C15.7309,13.0356 15.7309,13.6676 15.3399,14.0586 C15.1449,14.2536 14.8889,14.3516 14.6329,14.3516" id="Shape"></path>
                        <path d="M11.8047,26.417 C10.1987,26.417 8.6917,25.795 7.5627,24.665 C6.4327,23.536 5.8107,22.029 5.8107,20.423 C5.8107,18.816 6.4327,17.31 7.5627,16.181 L12.5117,11.23 C12.9027,10.84 13.5347,10.84 13.9257,11.23 C14.3167,11.621 14.3167,12.254 13.9257,12.645 L8.9767,17.595 C8.2247,18.347 7.8107,19.351 7.8107,20.423 C7.8107,21.495 8.2247,22.499 8.9767,23.251 C9.7287,24.003 10.7327,24.417 11.8047,24.417 C12.8767,24.417 13.8807,24.003 14.6327,23.251 L16.7547,21.13 C17.1457,20.739 17.7787,20.739 18.1687,21.13 C18.5597,21.521 18.5597,22.153 18.1687,22.544 L16.0467,24.665 C14.9177,25.795 13.4107,26.417 11.8047,26.417" id="Shape"></path>
                        <path d="M16.7559,9.4023 C16.4659,9.4023 16.1789,9.2773 15.9819,9.0363 C15.6309,8.6083 15.6939,7.9783 16.1209,7.6293 C17.3439,6.6283 17.9589,5.7143 18.0019,4.8363 C18.0469,3.9253 17.4879,2.9023 16.2929,1.7073 C15.9019,1.3163 15.9019,0.6833 16.2929,0.2933 C16.6839,-0.0977 17.3169,-0.0977 17.7069,0.2933 C19.3239,1.9103 20.0739,3.4283 19.9999,4.9343 C19.9269,6.4093 19.0719,7.7973 17.3889,9.1753 C17.2029,9.3283 16.9789,9.4023 16.7559,9.4023" id="Shape"></path>
                        <path d="M27.6739,20.3232 L38.3739,33.2512 L46.0289,25.5952 L34.2159,13.7812 L27.6739,20.3232 Z M38.2339,36.2192 L24.9729,20.1962 L34.2159,10.9532 L48.8579,25.5952 L38.2339,36.2192 Z" id="Shape"></path>
                        <path d="M12.7813,35.2158 L24.5943,47.0288 L34.5323,37.0918 L21.6043,26.3928 L12.7813,35.2158 Z M24.5943,49.8578 L9.9533,35.2158 L21.4773,23.6918 L37.5013,36.9528 L24.5943,49.8578 Z" id="Shape"></path>
                    </g>
                </g>
            </g>
        </g>
    </g>
</svg>