<?xml version="1.0" encoding="UTF-8"?>
<svg width="60px" height="60px" viewBox="0 0 60 60" version="1.1" xmlns="http://www.w3.org/2000/svg" xmlns:xlink="http://www.w3.org/1999/xlink">
    <!-- Generator: Sketch 43.2 (39069) - http://www.bohemiancoding.com/sketch -->
    <title>ico-broderie</title>
    <desc>Created with Sketch.</desc>
    <defs></defs>
    <g id="Page-1" stroke="none" stroke-width="1" fill="none" fill-rule="evenodd">
        <g id="noun_574481_cc-(1)" fill-rule="nonzero" fill="#FFFFFF">
            <g id="Group">
                <g id="ico-broderie">
                    <g>
                        <path d="M5,52 C3.346,52 2,53.346 2,55 C2,56.654 3.346,58 5,58 L55,58 C56.654,58 58,56.654 58,55 C58,53.346 56.654,52 55,52 L5,52 Z M55,60 L5,60 C2.243,60 0,57.757 0,55 C0,52.243 2.243,50 5,50 L55,50 C57.757,50 60,52.243 60,55 C60,57.757 57.757,60 55,60 L55,60 Z" id="Shape"></path>
                        <path d="M6.1729,50 L53.8269,50 L47.1989,8.577 C46.5899,4.766 43.3469,2 39.4869,2 L20.5129,2 C16.6529,2 13.4099,4.766 12.8009,8.576 L6.1729,50 Z M56.1729,52 L3.8269,52 L10.8259,8.26 C11.5919,3.474 15.6649,0 20.5129,0 L39.4869,0 C44.3349,0 48.4079,3.474 49.1739,8.261 L56.1729,52 Z" id="Shape"></path>
                        <path d="M25,8 C25,8.552 24.552,9 24,9 C23.448,9 23,8.552 23,8 C23,7.448 23.448,7 24,7 C24.552,7 25,7.448 25,8" id="Shape"></path>
                        <path d="M28,2 C28,2.552 27.552,3 27,3 C26.448,3 26,2.552 26,2 C26,1.448 26.448,1 27,1 C27.552,1 28,1.448 28,2" id="Shape"></path>
                        <path d="M28,14 C28,14.552 27.552,15 27,15 C26.448,15 26,14.552 26,14 C26,13.448 26.448,13 27,13 C27.552,13 28,13.448 28,14" id="Shape"></path>
                        <path d="M31,8 C31,8.552 30.552,9 30,9 C29.448,9 29,8.552 29,8 C29,7.448 29.448,7 30,7 C30.552,7 31,7.448 31,8" id="Shape"></path>
                        <path d="M19,8 C19,8.552 18.552,9 18,9 C17.448,9 17,8.552 17,8 C17,7.448 17.448,7 18,7 C18.552,7 19,7.448 19,8" id="Shape"></path>
                        <path d="M22,2 C22,2.552 21.552,3 21,3 C20.448,3 20,2.552 20,2 C20,1.448 20.448,1 21,1 C21.552,1 22,1.448 22,2" id="Shape"></path>
                        <path d="M22,14 C22,14.552 21.552,15 21,15 C20.448,15 20,14.552 20,14 C20,13.448 20.448,13 21,13 C21.552,13 22,13.448 22,14" id="Shape"></path>
                        <path d="M16,14 C16,14.552 15.552,15 15,15 C14.448,15 14,14.552 14,14 C14,13.448 14.448,13 15,13 C15.552,13 16,13.448 16,14" id="Shape"></path>
                        <path d="M34,2 C34,2.552 33.552,3 33,3 C32.448,3 32,2.552 32,2 C32,1.448 32.448,1 33,1 C33.552,1 34,1.448 34,2" id="Shape"></path>
                        <path d="M34,14 C34,14.552 33.552,15 33,15 C32.448,15 32,14.552 32,14 C32,13.448 32.448,13 33,13 C33.552,13 34,13.448 34,14" id="Shape"></path>
                        <path d="M37,8 C37,8.552 36.552,9 36,9 C35.448,9 35,8.552 35,8 C35,7.448 35.448,7 36,7 C36.552,7 37,7.448 37,8" id="Shape"></path>
                        <path d="M43,8 C43,8.552 42.552,9 42,9 C41.448,9 41,8.552 41,8 C41,7.448 41.448,7 42,7 C42.552,7 43,7.448 43,8" id="Shape"></path>
                        <path d="M25,20 C25,20.552 24.552,21 24,21 C23.448,21 23,20.552 23,20 C23,19.448 23.448,19 24,19 C24.552,19 25,19.448 25,20" id="Shape"></path>
                        <path d="M31,20 C31,20.552 30.552,21 30,21 C29.448,21 29,20.552 29,20 C29,19.448 29.448,19 30,19 C30.552,19 31,19.448 31,20" id="Shape"></path>
                        <path d="M19,20 C19,20.552 18.552,21 18,21 C17.448,21 17,20.552 17,20 C17,19.448 17.448,19 18,19 C18.552,19 19,19.448 19,20" id="Shape"></path>
                        <path d="M37,20 C37,20.552 36.552,21 36,21 C35.448,21 35,20.552 35,20 C35,19.448 35.448,19 36,19 C36.552,19 37,19.448 37,20" id="Shape"></path>
                        <path d="M43,20 C43,20.552 42.552,21 42,21 C41.448,21 41,20.552 41,20 C41,19.448 41.448,19 42,19 C42.552,19 43,19.448 43,20" id="Shape"></path>
                        <path d="M40,2 C40,2.552 39.552,3 39,3 C38.448,3 38,2.552 38,2 C38,1.448 38.448,1 39,1 C39.552,1 40,1.448 40,2" id="Shape"></path>
                        <path d="M40,14 C40,14.552 39.552,15 39,15 C38.448,15 38,14.552 38,14 C38,13.448 38.448,13 39,13 C39.552,13 40,13.448 40,14" id="Shape"></path>
                        <path d="M46,14 C46,14.552 45.552,15 45,15 C44.448,15 44,14.552 44,14 C44,13.448 44.448,13 45,13 C45.552,13 46,13.448 46,14" id="Shape"></path>
                        <path d="M28,26 C28,26.552 27.552,27 27,27 C26.448,27 26,26.552 26,26 C26,25.448 26.448,25 27,25 C27.552,25 28,25.448 28,26" id="Shape"></path>
                        <path d="M22,26 C22,26.552 21.552,27 21,27 C20.448,27 20,26.552 20,26 C20,25.448 20.448,25 21,25 C21.552,25 22,25.448 22,26" id="Shape"></path>
                        <path d="M16,26 C16,26.552 15.552,27 15,27 C14.448,27 14,26.552 14,26 C14,25.448 14.448,25 15,25 C15.552,25 16,25.448 16,26" id="Shape"></path>
                        <path d="M34,26 C34,26.552 33.552,27 33,27 C32.448,27 32,26.552 32,26 C32,25.448 32.448,25 33,25 C33.552,25 34,25.448 34,26" id="Shape"></path>
                        <path d="M25,32 C25,32.552 24.552,33 24,33 C23.448,33 23,32.552 23,32 C23,31.448 23.448,31 24,31 C24.552,31 25,31.448 25,32" id="Shape"></path>
                        <path d="M31,32 C31,32.552 30.552,33 30,33 C29.448,33 29,32.552 29,32 C29,31.448 29.448,31 30,31 C30.552,31 31,31.448 31,32" id="Shape"></path>
                        <path d="M19,32 C19,32.552 18.552,33 18,33 C17.448,33 17,32.552 17,32 C17,31.448 17.448,31 18,31 C18.552,31 19,31.448 19,32" id="Shape"></path>
                        <path d="M37,32 C37,32.552 36.552,33 36,33 C35.448,33 35,32.552 35,32 C35,31.448 35.448,31 36,31 C36.552,31 37,31.448 37,32" id="Shape"></path>
                        <path d="M43,32 C43,32.552 42.552,33 42,33 C41.448,33 41,32.552 41,32 C41,31.448 41.448,31 42,31 C42.552,31 43,31.448 43,32" id="Shape"></path>
                        <path d="M40,26 C40,26.552 39.552,27 39,27 C38.448,27 38,26.552 38,26 C38,25.448 38.448,25 39,25 C39.552,25 40,25.448 40,26" id="Shape"></path>
                        <path d="M46,26 C46,26.552 45.552,27 45,27 C44.448,27 44,26.552 44,26 C44,25.448 44.448,25 45,25 C45.552,25 46,25.448 46,26" id="Shape"></path>
                        <path d="M28,38 C28,38.552 27.552,39 27,39 C26.448,39 26,38.552 26,38 C26,37.448 26.448,37 27,37 C27.552,37 28,37.448 28,38" id="Shape"></path>
                        <path d="M22,38 C22,38.552 21.552,39 21,39 C20.448,39 20,38.552 20,38 C20,37.448 20.448,37 21,37 C21.552,37 22,37.448 22,38" id="Shape"></path>
                        <path d="M16,38 C16,38.552 15.552,39 15,39 C14.448,39 14,38.552 14,38 C14,37.448 14.448,37 15,37 C15.552,37 16,37.448 16,38" id="Shape"></path>
                        <path d="M10,38 C10,38.552 9.552,39 9,39 C8.448,39 8,38.552 8,38 C8,37.448 8.448,37 9,37 C9.552,37 10,37.448 10,38" id="Shape"></path>
                        <path d="M34,38 C34,38.552 33.552,39 33,39 C32.448,39 32,38.552 32,38 C32,37.448 32.448,37 33,37 C33.552,37 34,37.448 34,38" id="Shape"></path>
                        <path d="M25,44 C25,44.552 24.552,45 24,45 C23.448,45 23,44.552 23,44 C23,43.448 23.448,43 24,43 C24.552,43 25,43.448 25,44" id="Shape"></path>
                        <path d="M31,44 C31,44.552 30.552,45 30,45 C29.448,45 29,44.552 29,44 C29,43.448 29.448,43 30,43 C30.552,43 31,43.448 31,44" id="Shape"></path>
                        <path d="M19,44 C19,44.552 18.552,45 18,45 C17.448,45 17,44.552 17,44 C17,43.448 17.448,43 18,43 C18.552,43 19,43.448 19,44" id="Shape"></path>
                        <path d="M13,20 C13,20.552 12.552,21 12,21 C11.448,21 11,20.552 11,20 C11,19.448 11.448,19 12,19 C12.552,19 13,19.448 13,20" id="Shape"></path>
                        <path d="M13,32 C13,32.552 12.552,33 12,33 C11.448,33 11,32.552 11,32 C11,31.448 11.448,31 12,31 C12.552,31 13,31.448 13,32" id="Shape"></path>
                        <path d="M13,44 C13,44.552 12.552,45 12,45 C11.448,45 11,44.552 11,44 C11,43.448 11.448,43 12,43 C12.552,43 13,43.448 13,44" id="Shape"></path>
                        <path d="M37,44 C37,44.552 36.552,45 36,45 C35.448,45 35,44.552 35,44 C35,43.448 35.448,43 36,43 C36.552,43 37,43.448 37,44" id="Shape"></path>
                        <path d="M43,44 C43,44.552 42.552,45 42,45 C41.448,45 41,44.552 41,44 C41,43.448 41.448,43 42,43 C42.552,43 43,43.448 43,44" id="Shape"></path>
                        <path d="M49,20 C49,20.552 48.552,21 48,21 C47.448,21 47,20.552 47,20 C47,19.448 47.448,19 48,19 C48.552,19 49,19.448 49,20" id="Shape"></path>
                        <path d="M49,32 C49,32.552 48.552,33 48,33 C47.448,33 47,32.552 47,32 C47,31.448 47.448,31 48,31 C48.552,31 49,31.448 49,32" id="Shape"></path>
                        <path d="M49,44 C49,44.552 48.552,45 48,45 C47.448,45 47,44.552 47,44 C47,43.448 47.448,43 48,43 C48.552,43 49,43.448 49,44" id="Shape"></path>
                        <path d="M40,38 C40,38.552 39.552,39 39,39 C38.448,39 38,38.552 38,38 C38,37.448 38.448,37 39,37 C39.552,37 40,37.448 40,38" id="Shape"></path>
                        <path d="M46,38 C46,38.552 45.552,39 45,39 C44.448,39 44,38.552 44,38 C44,37.448 44.448,37 45,37 C45.552,37 46,37.448 46,38" id="Shape"></path>
                        <path d="M52,38 C52,38.552 51.552,39 51,39 C50.448,39 50,38.552 50,38 C50,37.448 50.448,37 51,37 C51.552,37 52,37.448 52,38" id="Shape"></path>
                        <path d="M28,49 C28,49.552 27.552,50 27,50 C26.448,50 26,49.552 26,49 C26,48.448 26.448,48 27,48 C27.552,48 28,48.448 28,49" id="Shape"></path>
                        <path d="M22,49 C22,49.552 21.552,50 21,50 C20.448,50 20,49.552 20,49 C20,48.448 20.448,48 21,48 C21.552,48 22,48.448 22,49" id="Shape"></path>
                        <path d="M16,49 C16,49.552 15.552,50 15,50 C14.448,50 14,49.552 14,49 C14,48.448 14.448,48 15,48 C15.552,48 16,48.448 16,49" id="Shape"></path>
                        <path d="M10,49 C10,49.552 9.552,50 9,50 C8.448,50 8,49.552 8,49 C8,48.448 8.448,48 9,48 C9.552,48 10,48.448 10,49" id="Shape"></path>
                        <path d="M34,49 C34,49.552 33.552,50 33,50 C32.448,50 32,49.552 32,49 C32,48.448 32.448,48 33,48 C33.552,48 34,48.448 34,49" id="Shape"></path>
                        <path d="M40,49 C40,49.552 39.552,50 39,50 C38.448,50 38,49.552 38,49 C38,48.448 38.448,48 39,48 C39.552,48 40,48.448 40,49" id="Shape"></path>
                        <path d="M46,49 C46,49.552 45.552,50 45,50 C44.448,50 44,49.552 44,49 C44,48.448 44.448,48 45,48 C45.552,48 46,48.448 46,49" id="Shape"></path>
                        <path d="M52,49 C52,49.552 51.552,50 51,50 C50.448,50 50,49.552 50,49 C50,48.448 50.448,48 51,48 C51.552,48 52,48.448 52,49" id="Shape"></path>
                    </g>
                </g>
            </g>
        </g>
    </g>
</svg>